<?xml version="1.0" encoding="utf-8"?>
<svg xmlns="http://www.w3.org/2000/svg" xmlns:xlink="http://www.w3.org/1999/xlink" style="margin: auto; background: rgb(255, 255, 255); display: block; shape-rendering: auto;" width="204px" height="204px" viewBox="0 0 100 100" preserveAspectRatio="xMidYMid">
<g transform="rotate(0 50 50)">
  <rect x="44.5" y="14.5" rx="5.5" ry="5.5" width="11" height="11" fill="#fe718d">
    <animate attributeName="opacity" values="1;0" keyTimes="0;1" dur="0.7407407407407407s" begin="-0.6878306878306878s" repeatCount="indefinite"></animate>
  </rect>
</g><g transform="rotate(25.714285714285715 50 50)">
  <rect x="44.5" y="14.5" rx="5.5" ry="5.5" width="11" height="11" fill="#f47e60">
    <animate attributeName="opacity" values="1;0" keyTimes="0;1" dur="0.7407407407407407s" begin="-0.6349206349206349s" repeatCount="indefinite"></animate>
  </rect>
</g><g transform="rotate(51.42857142857143 50 50)">
  <rect x="44.5" y="14.5" rx="5.5" ry="5.5" width="11" height="11" fill="#f8b26a">
    <animate attributeName="opacity" values="1;0" keyTimes="0;1" dur="0.7407407407407407s" begin="-0.582010582010582s" repeatCount="indefinite"></animate>
  </rect>
</g><g transform="rotate(77.14285714285714 50 50)">
  <rect x="44.5" y="14.5" rx="5.5" ry="5.5" width="11" height="11" fill="#abbd81">
    <animate attributeName="opacity" values="1;0" keyTimes="0;1" dur="0.7407407407407407s" begin="-0.5291005291005291s" repeatCount="indefinite"></animate>
  </rect>
</g><g transform="rotate(102.85714285714286 50 50)">
  <rect x="44.5" y="14.5" rx="5.5" ry="5.5" width="11" height="11" fill="#849b87">
    <animate attributeName="opacity" values="1;0" keyTimes="0;1" dur="0.7407407407407407s" begin="-0.47619047619047616s" repeatCount="indefinite"></animate>
  </rect>
</g><g transform="rotate(128.57142857142858 50 50)">
  <rect x="44.5" y="14.5" rx="5.5" ry="5.5" width="11" height="11" fill="#6492ac">
    <animate attributeName="opacity" values="1;0" keyTimes="0;1" dur="0.7407407407407407s" begin="-0.42328042328042326s" repeatCount="indefinite"></animate>
  </rect>
</g><g transform="rotate(154.28571428571428 50 50)">
  <rect x="44.5" y="14.5" rx="5.5" ry="5.5" width="11" height="11" fill="#637cb5">
    <animate attributeName="opacity" values="1;0" keyTimes="0;1" dur="0.7407407407407407s" begin="-0.37037037037037035s" repeatCount="indefinite"></animate>
  </rect>
</g><g transform="rotate(180 50 50)">
  <rect x="44.5" y="14.5" rx="5.5" ry="5.5" width="11" height="11" fill="#6a63b6">
    <animate attributeName="opacity" values="1;0" keyTimes="0;1" dur="0.7407407407407407s" begin="-0.31746031746031744s" repeatCount="indefinite"></animate>
  </rect>
</g><g transform="rotate(205.71428571428572 50 50)">
  <rect x="44.5" y="14.5" rx="5.5" ry="5.5" width="11" height="11" fill="#fe718d">
    <animate attributeName="opacity" values="1;0" keyTimes="0;1" dur="0.7407407407407407s" begin="-0.26455026455026454s" repeatCount="indefinite"></animate>
  </rect>
</g><g transform="rotate(231.42857142857142 50 50)">
  <rect x="44.5" y="14.5" rx="5.5" ry="5.5" width="11" height="11" fill="#f47e60">
    <animate attributeName="opacity" values="1;0" keyTimes="0;1" dur="0.7407407407407407s" begin="-0.21164021164021163s" repeatCount="indefinite"></animate>
  </rect>
</g><g transform="rotate(257.14285714285717 50 50)">
  <rect x="44.5" y="14.5" rx="5.5" ry="5.5" width="11" height="11" fill="#f8b26a">
    <animate attributeName="opacity" values="1;0" keyTimes="0;1" dur="0.7407407407407407s" begin="-0.15873015873015872s" repeatCount="indefinite"></animate>
  </rect>
</g><g transform="rotate(282.85714285714283 50 50)">
  <rect x="44.5" y="14.5" rx="5.5" ry="5.5" width="11" height="11" fill="#abbd81">
    <animate attributeName="opacity" values="1;0" keyTimes="0;1" dur="0.7407407407407407s" begin="-0.10582010582010581s" repeatCount="indefinite"></animate>
  </rect>
</g><g transform="rotate(308.57142857142856 50 50)">
  <rect x="44.5" y="14.5" rx="5.5" ry="5.5" width="11" height="11" fill="#849b87">
    <animate attributeName="opacity" values="1;0" keyTimes="0;1" dur="0.7407407407407407s" begin="-0.05291005291005291s" repeatCount="indefinite"></animate>
  </rect>
</g><g transform="rotate(334.2857142857143 50 50)">
  <rect x="44.5" y="14.5" rx="5.5" ry="5.5" width="11" height="11" fill="#6492ac">
    <animate attributeName="opacity" values="1;0" keyTimes="0;1" dur="0.7407407407407407s" begin="0s" repeatCount="indefinite"></animate>
  </rect>
</g>
<!-- [ldio] generated by https://loading.io/ --></svg>